<mxfile host="app.diagrams.net" modified="2024-07-13T09:34:14.448Z" agent="Mozilla/5.0 (X11; Ubuntu; Linux x86_64; rv:126.0) Gecko/20100101 Firefox/126.0" etag="MrWLi4Fd00Q6Q1GtbJbb" version="24.6.5" type="github" pages="2">
  <diagram name="Input Data" id="gtx5BpAeep7iziiNPQR7">
    <mxGraphModel dx="1137" dy="628" grid="1" gridSize="10" guides="1" tooltips="1" connect="1" arrows="1" fold="1" page="1" pageScale="1" pageWidth="850" pageHeight="1100" math="0" shadow="0">
      <root>
        <mxCell id="0" />
        <mxCell id="1" parent="0" />
        <mxCell id="RDjJ9W1wKMQd1sdzA2Of-61" value="" style="edgeStyle=orthogonalEdgeStyle;rounded=0;orthogonalLoop=1;jettySize=auto;html=1;" edge="1" parent="1">
          <mxGeometry relative="1" as="geometry">
            <mxPoint x="190" y="328" as="sourcePoint" />
            <mxPoint x="NaN" y="160" as="targetPoint" />
          </mxGeometry>
        </mxCell>
        <mxCell id="RDjJ9W1wKMQd1sdzA2Of-67" value="Category Table" style="shape=table;startSize=30;container=1;collapsible=0;childLayout=tableLayout;" vertex="1" parent="1">
          <mxGeometry x="60" y="30" width="120" height="110" as="geometry" />
        </mxCell>
        <mxCell id="RDjJ9W1wKMQd1sdzA2Of-68" value="" style="shape=tableRow;horizontal=0;startSize=0;swimlaneHead=0;swimlaneBody=0;strokeColor=inherit;top=0;left=0;bottom=0;right=0;collapsible=0;dropTarget=0;fillColor=none;points=[[0,0.5],[1,0.5]];portConstraint=eastwest;" vertex="1" parent="RDjJ9W1wKMQd1sdzA2Of-67">
          <mxGeometry y="30" width="120" height="40" as="geometry" />
        </mxCell>
        <mxCell id="RDjJ9W1wKMQd1sdzA2Of-69" value="Expense category" style="shape=partialRectangle;html=1;whiteSpace=wrap;connectable=0;strokeColor=inherit;overflow=hidden;fillColor=none;top=0;left=0;bottom=0;right=0;pointerEvents=1;" vertex="1" parent="RDjJ9W1wKMQd1sdzA2Of-68">
          <mxGeometry width="60" height="40" as="geometry">
            <mxRectangle width="60" height="40" as="alternateBounds" />
          </mxGeometry>
        </mxCell>
        <mxCell id="RDjJ9W1wKMQd1sdzA2Of-70" value="Notes" style="shape=partialRectangle;html=1;whiteSpace=wrap;connectable=0;strokeColor=inherit;overflow=hidden;fillColor=none;top=0;left=0;bottom=0;right=0;pointerEvents=1;" vertex="1" parent="RDjJ9W1wKMQd1sdzA2Of-68">
          <mxGeometry x="60" width="60" height="40" as="geometry">
            <mxRectangle width="60" height="40" as="alternateBounds" />
          </mxGeometry>
        </mxCell>
        <mxCell id="RDjJ9W1wKMQd1sdzA2Of-72" value="" style="shape=tableRow;horizontal=0;startSize=0;swimlaneHead=0;swimlaneBody=0;strokeColor=inherit;top=0;left=0;bottom=0;right=0;collapsible=0;dropTarget=0;fillColor=none;points=[[0,0.5],[1,0.5]];portConstraint=eastwest;" vertex="1" parent="RDjJ9W1wKMQd1sdzA2Of-67">
          <mxGeometry y="70" width="120" height="40" as="geometry" />
        </mxCell>
        <mxCell id="RDjJ9W1wKMQd1sdzA2Of-73" value="Income category" style="shape=partialRectangle;html=1;whiteSpace=wrap;connectable=0;strokeColor=inherit;overflow=hidden;fillColor=none;top=0;left=0;bottom=0;right=0;pointerEvents=1;" vertex="1" parent="RDjJ9W1wKMQd1sdzA2Of-72">
          <mxGeometry width="60" height="40" as="geometry">
            <mxRectangle width="60" height="40" as="alternateBounds" />
          </mxGeometry>
        </mxCell>
        <mxCell id="RDjJ9W1wKMQd1sdzA2Of-74" value="Notes" style="shape=partialRectangle;html=1;whiteSpace=wrap;connectable=0;strokeColor=inherit;overflow=hidden;fillColor=none;top=0;left=0;bottom=0;right=0;pointerEvents=1;" vertex="1" parent="RDjJ9W1wKMQd1sdzA2Of-72">
          <mxGeometry x="60" width="60" height="40" as="geometry">
            <mxRectangle width="60" height="40" as="alternateBounds" />
          </mxGeometry>
        </mxCell>
        <mxCell id="RDjJ9W1wKMQd1sdzA2Of-76" value="Expense table" style="shape=table;startSize=30;container=1;collapsible=0;childLayout=tableLayout;" vertex="1" parent="1">
          <mxGeometry x="60" y="180" width="580" height="200" as="geometry" />
        </mxCell>
        <mxCell id="RDjJ9W1wKMQd1sdzA2Of-77" value="" style="shape=tableRow;horizontal=0;startSize=0;swimlaneHead=0;swimlaneBody=0;strokeColor=inherit;top=0;left=0;bottom=0;right=0;collapsible=0;dropTarget=0;fillColor=none;points=[[0,0.5],[1,0.5]];portConstraint=eastwest;" vertex="1" parent="RDjJ9W1wKMQd1sdzA2Of-76">
          <mxGeometry y="30" width="580" height="78" as="geometry" />
        </mxCell>
        <mxCell id="RDjJ9W1wKMQd1sdzA2Of-78" value="Date" style="shape=partialRectangle;html=1;whiteSpace=wrap;connectable=0;strokeColor=inherit;overflow=hidden;fillColor=none;top=0;left=0;bottom=0;right=0;pointerEvents=1;" vertex="1" parent="RDjJ9W1wKMQd1sdzA2Of-77">
          <mxGeometry width="67" height="78" as="geometry">
            <mxRectangle width="67" height="78" as="alternateBounds" />
          </mxGeometry>
        </mxCell>
        <mxCell id="RDjJ9W1wKMQd1sdzA2Of-79" value="Store/ Vendor/ Payee" style="shape=partialRectangle;html=1;whiteSpace=wrap;connectable=0;strokeColor=inherit;overflow=hidden;fillColor=none;top=0;left=0;bottom=0;right=0;pointerEvents=1;" vertex="1" parent="RDjJ9W1wKMQd1sdzA2Of-77">
          <mxGeometry x="67" width="68" height="78" as="geometry">
            <mxRectangle width="68" height="78" as="alternateBounds" />
          </mxGeometry>
        </mxCell>
        <mxCell id="RDjJ9W1wKMQd1sdzA2Of-80" value="Amount" style="shape=partialRectangle;html=1;whiteSpace=wrap;connectable=0;strokeColor=inherit;overflow=hidden;fillColor=none;top=0;left=0;bottom=0;right=0;pointerEvents=1;" vertex="1" parent="RDjJ9W1wKMQd1sdzA2Of-77">
          <mxGeometry x="135" width="66" height="78" as="geometry">
            <mxRectangle width="66" height="78" as="alternateBounds" />
          </mxGeometry>
        </mxCell>
        <mxCell id="RDjJ9W1wKMQd1sdzA2Of-81" value="Expense Category" style="shape=partialRectangle;html=1;whiteSpace=wrap;connectable=0;strokeColor=inherit;overflow=hidden;fillColor=none;top=0;left=0;bottom=0;right=0;pointerEvents=1;" vertex="1" parent="RDjJ9W1wKMQd1sdzA2Of-77">
          <mxGeometry x="201" width="73" height="78" as="geometry">
            <mxRectangle width="73" height="78" as="alternateBounds" />
          </mxGeometry>
        </mxCell>
        <mxCell id="RDjJ9W1wKMQd1sdzA2Of-82" value="Notes *" style="shape=partialRectangle;html=1;whiteSpace=wrap;connectable=0;strokeColor=inherit;overflow=hidden;fillColor=none;top=0;left=0;bottom=0;right=0;pointerEvents=1;" vertex="1" parent="RDjJ9W1wKMQd1sdzA2Of-77">
          <mxGeometry x="274" width="74" height="78" as="geometry">
            <mxRectangle width="74" height="78" as="alternateBounds" />
          </mxGeometry>
        </mxCell>
        <mxCell id="RDjJ9W1wKMQd1sdzA2Of-83" value="Tags *" style="shape=partialRectangle;html=1;whiteSpace=wrap;connectable=0;strokeColor=inherit;overflow=hidden;fillColor=none;top=0;left=0;bottom=0;right=0;pointerEvents=1;" vertex="1" parent="RDjJ9W1wKMQd1sdzA2Of-77">
          <mxGeometry x="348" width="63" height="78" as="geometry">
            <mxRectangle width="63" height="78" as="alternateBounds" />
          </mxGeometry>
        </mxCell>
        <mxCell id="RDjJ9W1wKMQd1sdzA2Of-84" value="Tax Percentage *" style="shape=partialRectangle;html=1;whiteSpace=wrap;connectable=0;strokeColor=inherit;overflow=hidden;fillColor=none;top=0;left=0;bottom=0;right=0;pointerEvents=1;" vertex="1" parent="RDjJ9W1wKMQd1sdzA2Of-77">
          <mxGeometry x="411" width="74" height="78" as="geometry">
            <mxRectangle width="74" height="78" as="alternateBounds" />
          </mxGeometry>
        </mxCell>
        <mxCell id="RDjJ9W1wKMQd1sdzA2Of-85" value="Bill/ Receipt *" style="shape=partialRectangle;html=1;whiteSpace=wrap;connectable=0;strokeColor=inherit;overflow=hidden;fillColor=none;top=0;left=0;bottom=0;right=0;pointerEvents=1;" vertex="1" parent="RDjJ9W1wKMQd1sdzA2Of-77">
          <mxGeometry x="485" width="95" height="78" as="geometry">
            <mxRectangle width="95" height="78" as="alternateBounds" />
          </mxGeometry>
        </mxCell>
        <mxCell id="RDjJ9W1wKMQd1sdzA2Of-86" value="" style="shape=tableRow;horizontal=0;startSize=0;swimlaneHead=0;swimlaneBody=0;strokeColor=inherit;top=0;left=0;bottom=0;right=0;collapsible=0;dropTarget=0;fillColor=none;points=[[0,0.5],[1,0.5]];portConstraint=eastwest;" vertex="1" parent="RDjJ9W1wKMQd1sdzA2Of-76">
          <mxGeometry y="108" width="580" height="92" as="geometry" />
        </mxCell>
        <mxCell id="RDjJ9W1wKMQd1sdzA2Of-87" value="Date of expense" style="shape=partialRectangle;html=1;whiteSpace=wrap;connectable=0;strokeColor=inherit;overflow=hidden;fillColor=none;top=0;left=0;bottom=0;right=0;pointerEvents=1;" vertex="1" parent="RDjJ9W1wKMQd1sdzA2Of-86">
          <mxGeometry width="67" height="92" as="geometry">
            <mxRectangle width="67" height="92" as="alternateBounds" />
          </mxGeometry>
        </mxCell>
        <mxCell id="RDjJ9W1wKMQd1sdzA2Of-88" value="To whom money is paid" style="shape=partialRectangle;html=1;whiteSpace=wrap;connectable=0;strokeColor=inherit;overflow=hidden;fillColor=none;top=0;left=0;bottom=0;right=0;pointerEvents=1;" vertex="1" parent="RDjJ9W1wKMQd1sdzA2Of-86">
          <mxGeometry x="67" width="68" height="92" as="geometry">
            <mxRectangle width="68" height="92" as="alternateBounds" />
          </mxGeometry>
        </mxCell>
        <mxCell id="RDjJ9W1wKMQd1sdzA2Of-89" value="amount paid" style="shape=partialRectangle;html=1;whiteSpace=wrap;connectable=0;strokeColor=inherit;overflow=hidden;fillColor=none;top=0;left=0;bottom=0;right=0;pointerEvents=1;" vertex="1" parent="RDjJ9W1wKMQd1sdzA2Of-86">
          <mxGeometry x="135" width="66" height="92" as="geometry">
            <mxRectangle width="66" height="92" as="alternateBounds" />
          </mxGeometry>
        </mxCell>
        <mxCell id="RDjJ9W1wKMQd1sdzA2Of-90" value="choice from category table" style="shape=partialRectangle;html=1;whiteSpace=wrap;connectable=0;strokeColor=inherit;overflow=hidden;fillColor=none;top=0;left=0;bottom=0;right=0;pointerEvents=1;" vertex="1" parent="RDjJ9W1wKMQd1sdzA2Of-86">
          <mxGeometry x="201" width="73" height="92" as="geometry">
            <mxRectangle width="73" height="92" as="alternateBounds" />
          </mxGeometry>
        </mxCell>
        <mxCell id="RDjJ9W1wKMQd1sdzA2Of-91" value="Notes about the expense" style="shape=partialRectangle;html=1;whiteSpace=wrap;connectable=0;strokeColor=inherit;overflow=hidden;fillColor=none;top=0;left=0;bottom=0;right=0;pointerEvents=1;" vertex="1" parent="RDjJ9W1wKMQd1sdzA2Of-86">
          <mxGeometry x="274" width="74" height="92" as="geometry">
            <mxRectangle width="74" height="92" as="alternateBounds" />
          </mxGeometry>
        </mxCell>
        <mxCell id="RDjJ9W1wKMQd1sdzA2Of-92" value="&lt;div&gt;multiple lower case csv, &lt;br&gt;&lt;/div&gt;&lt;div&gt;used for filtering&lt;br&gt;&lt;/div&gt;" style="shape=partialRectangle;html=1;whiteSpace=wrap;connectable=0;strokeColor=inherit;overflow=hidden;fillColor=none;top=0;left=0;bottom=0;right=0;pointerEvents=1;" vertex="1" parent="RDjJ9W1wKMQd1sdzA2Of-86">
          <mxGeometry x="348" width="63" height="92" as="geometry">
            <mxRectangle width="63" height="92" as="alternateBounds" />
          </mxGeometry>
        </mxCell>
        <mxCell id="RDjJ9W1wKMQd1sdzA2Of-93" value="tax percentage of expense" style="shape=partialRectangle;html=1;whiteSpace=wrap;connectable=0;strokeColor=inherit;overflow=hidden;fillColor=none;top=0;left=0;bottom=0;right=0;pointerEvents=1;" vertex="1" parent="RDjJ9W1wKMQd1sdzA2Of-86">
          <mxGeometry x="411" width="74" height="92" as="geometry">
            <mxRectangle width="74" height="92" as="alternateBounds" />
          </mxGeometry>
        </mxCell>
        <mxCell id="RDjJ9W1wKMQd1sdzA2Of-94" value="any file format" style="shape=partialRectangle;html=1;whiteSpace=wrap;connectable=0;strokeColor=inherit;overflow=hidden;fillColor=none;top=0;left=0;bottom=0;right=0;pointerEvents=1;" vertex="1" parent="RDjJ9W1wKMQd1sdzA2Of-86">
          <mxGeometry x="485" width="95" height="92" as="geometry">
            <mxRectangle width="95" height="92" as="alternateBounds" />
          </mxGeometry>
        </mxCell>
        <mxCell id="RDjJ9W1wKMQd1sdzA2Of-154" value="Income table" style="shape=table;startSize=30;container=1;collapsible=0;childLayout=tableLayout;" vertex="1" parent="1">
          <mxGeometry x="60" y="430" width="570" height="180" as="geometry" />
        </mxCell>
        <mxCell id="RDjJ9W1wKMQd1sdzA2Of-155" value="" style="shape=tableRow;horizontal=0;startSize=0;swimlaneHead=0;swimlaneBody=0;strokeColor=inherit;top=0;left=0;bottom=0;right=0;collapsible=0;dropTarget=0;fillColor=none;points=[[0,0.5],[1,0.5]];portConstraint=eastwest;" vertex="1" parent="RDjJ9W1wKMQd1sdzA2Of-154">
          <mxGeometry y="30" width="570" height="75" as="geometry" />
        </mxCell>
        <mxCell id="RDjJ9W1wKMQd1sdzA2Of-156" value="Date" style="shape=partialRectangle;html=1;whiteSpace=wrap;connectable=0;strokeColor=inherit;overflow=hidden;fillColor=none;top=0;left=0;bottom=0;right=0;pointerEvents=1;" vertex="1" parent="RDjJ9W1wKMQd1sdzA2Of-155">
          <mxGeometry width="114" height="75" as="geometry">
            <mxRectangle width="114" height="75" as="alternateBounds" />
          </mxGeometry>
        </mxCell>
        <mxCell id="RDjJ9W1wKMQd1sdzA2Of-157" value="Source" style="shape=partialRectangle;html=1;whiteSpace=wrap;connectable=0;strokeColor=inherit;overflow=hidden;fillColor=none;top=0;left=0;bottom=0;right=0;pointerEvents=1;" vertex="1" parent="RDjJ9W1wKMQd1sdzA2Of-155">
          <mxGeometry x="114" width="114" height="75" as="geometry">
            <mxRectangle width="114" height="75" as="alternateBounds" />
          </mxGeometry>
        </mxCell>
        <mxCell id="RDjJ9W1wKMQd1sdzA2Of-158" value="Amount" style="shape=partialRectangle;html=1;whiteSpace=wrap;connectable=0;strokeColor=inherit;overflow=hidden;fillColor=none;top=0;left=0;bottom=0;right=0;pointerEvents=1;" vertex="1" parent="RDjJ9W1wKMQd1sdzA2Of-155">
          <mxGeometry x="228" width="114" height="75" as="geometry">
            <mxRectangle width="114" height="75" as="alternateBounds" />
          </mxGeometry>
        </mxCell>
        <mxCell id="RDjJ9W1wKMQd1sdzA2Of-159" value="Income category" style="shape=partialRectangle;html=1;whiteSpace=wrap;connectable=0;strokeColor=inherit;overflow=hidden;fillColor=none;top=0;left=0;bottom=0;right=0;pointerEvents=1;" vertex="1" parent="RDjJ9W1wKMQd1sdzA2Of-155">
          <mxGeometry x="342" width="114" height="75" as="geometry">
            <mxRectangle width="114" height="75" as="alternateBounds" />
          </mxGeometry>
        </mxCell>
        <mxCell id="RDjJ9W1wKMQd1sdzA2Of-160" value="Notes" style="shape=partialRectangle;html=1;whiteSpace=wrap;connectable=0;strokeColor=inherit;overflow=hidden;fillColor=none;top=0;left=0;bottom=0;right=0;pointerEvents=1;" vertex="1" parent="RDjJ9W1wKMQd1sdzA2Of-155">
          <mxGeometry x="456" width="114" height="75" as="geometry">
            <mxRectangle width="114" height="75" as="alternateBounds" />
          </mxGeometry>
        </mxCell>
        <mxCell id="RDjJ9W1wKMQd1sdzA2Of-161" value="" style="shape=tableRow;horizontal=0;startSize=0;swimlaneHead=0;swimlaneBody=0;strokeColor=inherit;top=0;left=0;bottom=0;right=0;collapsible=0;dropTarget=0;fillColor=none;points=[[0,0.5],[1,0.5]];portConstraint=eastwest;" vertex="1" parent="RDjJ9W1wKMQd1sdzA2Of-154">
          <mxGeometry y="105" width="570" height="75" as="geometry" />
        </mxCell>
        <mxCell id="RDjJ9W1wKMQd1sdzA2Of-162" value="Date of income" style="shape=partialRectangle;html=1;whiteSpace=wrap;connectable=0;strokeColor=inherit;overflow=hidden;fillColor=none;top=0;left=0;bottom=0;right=0;pointerEvents=1;" vertex="1" parent="RDjJ9W1wKMQd1sdzA2Of-161">
          <mxGeometry width="114" height="75" as="geometry">
            <mxRectangle width="114" height="75" as="alternateBounds" />
          </mxGeometry>
        </mxCell>
        <mxCell id="RDjJ9W1wKMQd1sdzA2Of-163" value="&lt;div&gt;Source of income&lt;/div&gt;&lt;div&gt;ABC Company&lt;br&gt;&lt;/div&gt;" style="shape=partialRectangle;html=1;whiteSpace=wrap;connectable=0;strokeColor=inherit;overflow=hidden;fillColor=none;top=0;left=0;bottom=0;right=0;pointerEvents=1;" vertex="1" parent="RDjJ9W1wKMQd1sdzA2Of-161">
          <mxGeometry x="114" width="114" height="75" as="geometry">
            <mxRectangle width="114" height="75" as="alternateBounds" />
          </mxGeometry>
        </mxCell>
        <mxCell id="RDjJ9W1wKMQd1sdzA2Of-164" value="amount received" style="shape=partialRectangle;html=1;whiteSpace=wrap;connectable=0;strokeColor=inherit;overflow=hidden;fillColor=none;top=0;left=0;bottom=0;right=0;pointerEvents=1;" vertex="1" parent="RDjJ9W1wKMQd1sdzA2Of-161">
          <mxGeometry x="228" width="114" height="75" as="geometry">
            <mxRectangle width="114" height="75" as="alternateBounds" />
          </mxGeometry>
        </mxCell>
        <mxCell id="RDjJ9W1wKMQd1sdzA2Of-165" value="choice from category table" style="shape=partialRectangle;html=1;whiteSpace=wrap;connectable=0;strokeColor=inherit;overflow=hidden;fillColor=none;top=0;left=0;bottom=0;right=0;pointerEvents=1;" vertex="1" parent="RDjJ9W1wKMQd1sdzA2Of-161">
          <mxGeometry x="342" width="114" height="75" as="geometry">
            <mxRectangle width="114" height="75" as="alternateBounds" />
          </mxGeometry>
        </mxCell>
        <mxCell id="RDjJ9W1wKMQd1sdzA2Of-166" value="notes about the income" style="shape=partialRectangle;html=1;whiteSpace=wrap;connectable=0;strokeColor=inherit;overflow=hidden;fillColor=none;top=0;left=0;bottom=0;right=0;pointerEvents=1;" vertex="1" parent="RDjJ9W1wKMQd1sdzA2Of-161">
          <mxGeometry x="456" width="114" height="75" as="geometry">
            <mxRectangle width="114" height="75" as="alternateBounds" />
          </mxGeometry>
        </mxCell>
        <mxCell id="RDjJ9W1wKMQd1sdzA2Of-167" value="Target Table" style="shape=table;startSize=30;container=1;collapsible=0;childLayout=tableLayout;" vertex="1" parent="1">
          <mxGeometry x="60" y="650" width="160" height="200" as="geometry" />
        </mxCell>
        <mxCell id="RDjJ9W1wKMQd1sdzA2Of-168" value="" style="shape=tableRow;horizontal=0;startSize=0;swimlaneHead=0;swimlaneBody=0;strokeColor=inherit;top=0;left=0;bottom=0;right=0;collapsible=0;dropTarget=0;fillColor=none;points=[[0,0.5],[1,0.5]];portConstraint=eastwest;" vertex="1" parent="RDjJ9W1wKMQd1sdzA2Of-167">
          <mxGeometry y="30" width="160" height="85" as="geometry" />
        </mxCell>
        <mxCell id="RDjJ9W1wKMQd1sdzA2Of-169" value="Expense" style="shape=partialRectangle;html=1;whiteSpace=wrap;connectable=0;strokeColor=inherit;overflow=hidden;fillColor=none;top=0;left=0;bottom=0;right=0;pointerEvents=1;" vertex="1" parent="RDjJ9W1wKMQd1sdzA2Of-168">
          <mxGeometry width="80" height="85" as="geometry">
            <mxRectangle width="80" height="85" as="alternateBounds" />
          </mxGeometry>
        </mxCell>
        <mxCell id="RDjJ9W1wKMQd1sdzA2Of-170" value="Monthly target" style="shape=partialRectangle;html=1;whiteSpace=wrap;connectable=0;strokeColor=inherit;overflow=hidden;fillColor=none;top=0;left=0;bottom=0;right=0;pointerEvents=1;" vertex="1" parent="RDjJ9W1wKMQd1sdzA2Of-168">
          <mxGeometry x="80" width="80" height="85" as="geometry">
            <mxRectangle width="80" height="85" as="alternateBounds" />
          </mxGeometry>
        </mxCell>
        <mxCell id="RDjJ9W1wKMQd1sdzA2Of-171" value="" style="shape=tableRow;horizontal=0;startSize=0;swimlaneHead=0;swimlaneBody=0;strokeColor=inherit;top=0;left=0;bottom=0;right=0;collapsible=0;dropTarget=0;fillColor=none;points=[[0,0.5],[1,0.5]];portConstraint=eastwest;" vertex="1" parent="RDjJ9W1wKMQd1sdzA2Of-167">
          <mxGeometry y="115" width="160" height="85" as="geometry" />
        </mxCell>
        <mxCell id="RDjJ9W1wKMQd1sdzA2Of-172" value="Income" style="shape=partialRectangle;html=1;whiteSpace=wrap;connectable=0;strokeColor=inherit;overflow=hidden;fillColor=none;top=0;left=0;bottom=0;right=0;pointerEvents=1;" vertex="1" parent="RDjJ9W1wKMQd1sdzA2Of-171">
          <mxGeometry width="80" height="85" as="geometry">
            <mxRectangle width="80" height="85" as="alternateBounds" />
          </mxGeometry>
        </mxCell>
        <mxCell id="RDjJ9W1wKMQd1sdzA2Of-173" value="Monthly target" style="shape=partialRectangle;html=1;whiteSpace=wrap;connectable=0;strokeColor=inherit;overflow=hidden;fillColor=none;top=0;left=0;bottom=0;right=0;pointerEvents=1;" vertex="1" parent="RDjJ9W1wKMQd1sdzA2Of-171">
          <mxGeometry x="80" width="80" height="85" as="geometry">
            <mxRectangle width="80" height="85" as="alternateBounds" />
          </mxGeometry>
        </mxCell>
      </root>
    </mxGraphModel>
  </diagram>
  <diagram id="hIEoCdlAo7eIZ_c-rAut" name="Features">
    <mxGraphModel dx="1364" dy="754" grid="1" gridSize="10" guides="1" tooltips="1" connect="1" arrows="1" fold="1" page="1" pageScale="1" pageWidth="850" pageHeight="1100" math="0" shadow="0">
      <root>
        <mxCell id="0" />
        <mxCell id="1" parent="0" />
        <mxCell id="-BPk79z7HH1v2atEXe8G-5" value="" style="rounded=1;whiteSpace=wrap;html=1;" vertex="1" parent="1">
          <mxGeometry x="80" y="60" width="690" height="650" as="geometry" />
        </mxCell>
        <mxCell id="-BPk79z7HH1v2atEXe8G-6" value="&lt;h1&gt;&lt;font style=&quot;font-size: 24px;&quot;&gt;Features&lt;/font&gt;&lt;/h1&gt;" style="text;html=1;align=center;verticalAlign=middle;whiteSpace=wrap;rounded=0;" vertex="1" parent="1">
          <mxGeometry x="325" y="120" width="200" height="70" as="geometry" />
        </mxCell>
        <mxCell id="-BPk79z7HH1v2atEXe8G-8" value="Dashboard" style="swimlane;fontStyle=0;childLayout=stackLayout;horizontal=1;startSize=26;horizontalStack=0;resizeParent=1;resizeParentMax=0;resizeLast=0;collapsible=1;marginBottom=0;align=center;fontSize=14;" vertex="1" parent="1">
          <mxGeometry x="140" y="190" width="190" height="260" as="geometry" />
        </mxCell>
        <mxCell id="-BPk79z7HH1v2atEXe8G-9" value="Monthly Expense by Category" style="text;strokeColor=none;fillColor=none;spacingLeft=4;spacingRight=4;overflow=hidden;rotatable=0;points=[[0,0.5],[1,0.5]];portConstraint=eastwest;fontSize=12;whiteSpace=wrap;html=1;" vertex="1" parent="-BPk79z7HH1v2atEXe8G-8">
          <mxGeometry y="26" width="190" height="30" as="geometry" />
        </mxCell>
        <mxCell id="-BPk79z7HH1v2atEXe8G-12" value="Income, Expense, Savings by month" style="text;strokeColor=none;fillColor=none;spacingLeft=4;spacingRight=4;overflow=hidden;rotatable=0;points=[[0,0.5],[1,0.5]];portConstraint=eastwest;fontSize=12;whiteSpace=wrap;html=1;" vertex="1" parent="-BPk79z7HH1v2atEXe8G-8">
          <mxGeometry y="56" width="190" height="44" as="geometry" />
        </mxCell>
        <mxCell id="-BPk79z7HH1v2atEXe8G-13" value="Custom range" style="text;strokeColor=none;fillColor=none;spacingLeft=4;spacingRight=4;overflow=hidden;rotatable=0;points=[[0,0.5],[1,0.5]];portConstraint=eastwest;fontSize=12;whiteSpace=wrap;html=1;" vertex="1" parent="-BPk79z7HH1v2atEXe8G-8">
          <mxGeometry y="100" width="190" height="30" as="geometry" />
        </mxCell>
        <mxCell id="-BPk79z7HH1v2atEXe8G-14" value="Monthly average" style="text;strokeColor=none;fillColor=none;spacingLeft=4;spacingRight=4;overflow=hidden;rotatable=0;points=[[0,0.5],[1,0.5]];portConstraint=eastwest;fontSize=12;whiteSpace=wrap;html=1;" vertex="1" parent="-BPk79z7HH1v2atEXe8G-8">
          <mxGeometry y="130" width="190" height="30" as="geometry" />
        </mxCell>
        <mxCell id="-BPk79z7HH1v2atEXe8G-15" value="Average Income, Expense, Savings" style="text;strokeColor=none;fillColor=none;spacingLeft=4;spacingRight=4;overflow=hidden;rotatable=0;points=[[0,0.5],[1,0.5]];portConstraint=eastwest;fontSize=12;whiteSpace=wrap;html=1;" vertex="1" parent="-BPk79z7HH1v2atEXe8G-8">
          <mxGeometry y="160" width="190" height="50" as="geometry" />
        </mxCell>
        <mxCell id="-BPk79z7HH1v2atEXe8G-16" value="Income, expense category percentage and amout" style="text;strokeColor=none;fillColor=none;spacingLeft=4;spacingRight=4;overflow=hidden;rotatable=0;points=[[0,0.5],[1,0.5]];portConstraint=eastwest;fontSize=12;whiteSpace=wrap;html=1;" vertex="1" parent="-BPk79z7HH1v2atEXe8G-8">
          <mxGeometry y="210" width="190" height="50" as="geometry" />
        </mxCell>
      </root>
    </mxGraphModel>
  </diagram>
</mxfile>
